<svg width="16" height="17" viewBox="0 0 16 17" fill="none" xmlns="http://www.w3.org/2000/svg">
<path d="M6.80357 1.48264L7.59643 0.658807C7.93214 0.309979 8.475 0.309979 8.80714 0.658807L15.75 7.86916C16.0857 8.21799 16.0857 8.78205 15.75 9.12717L8.80714 16.3412C8.47143 16.6901 7.92857 16.6901 7.59643 16.3412L6.80357 15.5174C6.46429 15.1649 6.47143 14.5897 6.81786 14.2446L11.1214 9.98439H0.857143C0.382143 9.98439 0 9.58732 0 9.09377V7.90627C0 7.41271 0.382143 7.01564 0.857143 7.01564H11.1214L6.81786 2.75549C6.46786 2.41037 6.46071 1.83517 6.80357 1.48264Z" fill="#529AC6"/>
</svg>
