<svg width="49" height="56" viewBox="0 0 49 56" fill="none" xmlns="http://www.w3.org/2000/svg">
<path d="M1.75 14.4375H47.25C48.2165 14.4375 49 13.654 49 12.6875V8.3125C49 7.34595 48.2165 6.5625 47.25 6.5625H1.75C0.783453 6.5625 0 7.34595 0 8.3125V12.6875C0 13.654 0.783453 14.4375 1.75 14.4375ZM1.75 31.9375H47.25C48.2165 31.9375 49 31.154 49 30.1875V25.8125C49 24.846 48.2165 24.0625 47.25 24.0625H1.75C0.783453 24.0625 0 24.846 0 25.8125V30.1875C0 31.154 0.783453 31.9375 1.75 31.9375ZM1.75 49.4375H47.25C48.2165 49.4375 49 48.654 49 47.6875V43.3125C49 42.346 48.2165 41.5625 47.25 41.5625H1.75C0.783453 41.5625 0 42.346 0 43.3125V47.6875C0 48.654 0.783453 49.4375 1.75 49.4375Z" fill="#9CCC65"/>
</svg>
