<svg width="142" height="142" viewBox="0 0 142 142" fill="none" xmlns="http://www.w3.org/2000/svg">
<path d="M135.51 69.3914L108.719 59.3516V29.2598C108.719 25.0996 106.139 21.3832 102.229 19.9133L74.4945 9.5129C72.248 8.65313 69.752 8.65313 67.4777 9.5129L39.7434 19.9133C35.8328 21.3832 33.2535 25.0996 33.2535 29.2598V59.3516L6.46211 69.3914C2.5793 70.8613 0 74.5777 0 78.7379V109.273C0 113.045 2.13555 116.512 5.51914 118.204L33.2535 132.071C36.0547 133.486 39.3828 133.486 42.184 132.071L71 117.649L99.816 132.071C102.617 133.486 105.945 133.486 108.746 132.071L136.481 118.204C139.864 116.512 142 113.045 142 109.273V78.7379C142 74.5777 139.421 70.8613 135.51 69.3914ZM99.2891 59.5734L75.7148 68.4207V49.5059L99.2891 39.2442V59.5734ZM42.7109 28.8715L71 18.277L99.2891 28.8715V29.0379L71 40.5199L42.7109 29.0379V28.8715ZM66.0078 109.606L42.4336 121.393V99.4555L66.0078 88.6945V109.606ZM66.0078 78.5438L37.7188 90.0258L9.42969 78.5438V78.3774L37.7188 67.7828L66.0078 78.3774V78.5438ZM132.57 109.606L108.996 121.393V99.4555L132.57 88.6945V109.606ZM132.57 78.5438L104.281 90.0258L75.9922 78.5438V78.3774L104.281 67.7828L132.57 78.3774V78.5438Z" fill="#9CCC65"/>
</svg>
