<svg width="142" height="142" viewBox="0 0 142 142" fill="none" xmlns="http://www.w3.org/2000/svg">
<path d="M75.2768 111.041H67.2191C66.1505 111.041 65.1258 111.466 64.3702 112.221C63.6147 112.977 63.1902 114.002 63.1902 115.07V123.128C63.1902 124.196 63.6147 125.221 64.3702 125.977C65.1258 126.732 66.1505 127.157 67.2191 127.157H75.2768C76.3453 127.157 77.3701 126.732 78.1256 125.977C78.8812 125.221 79.3057 124.196 79.3057 123.128V115.07C79.3057 114.002 78.8812 112.977 78.1256 112.221C77.3701 111.466 76.3453 111.041 75.2768 111.041ZM51.1036 111.041H43.0458C41.9773 111.041 40.9526 111.466 40.197 112.221C39.4414 112.977 39.017 114.002 39.017 115.07V123.128C39.017 124.196 39.4414 125.221 40.197 125.977C40.9526 126.732 41.9773 127.157 43.0458 127.157H51.1036C52.1721 127.157 53.1969 126.732 53.9524 125.977C54.708 125.221 55.1325 124.196 55.1325 123.128V115.07C55.1325 114.002 54.708 112.977 53.9524 112.221C53.1969 111.466 52.1721 111.041 51.1036 111.041ZM99.45 111.041H91.3923C90.3238 111.041 89.299 111.466 88.5434 112.221C87.7879 112.977 87.3634 114.002 87.3634 115.07V123.128C87.3634 124.196 87.7879 125.221 88.5434 125.977C89.299 126.732 90.3238 127.157 91.3923 127.157H99.45C100.519 127.157 101.543 126.732 102.299 125.977C103.054 125.221 103.479 124.196 103.479 123.128V115.07C103.479 114.002 103.054 112.977 102.299 112.221C101.543 111.466 100.519 111.041 99.45 111.041ZM123.623 62.6949H115.566C114.497 62.6949 113.472 63.1194 112.717 63.8749C111.961 64.6305 111.537 65.6552 111.537 66.7238V74.7815C111.537 75.85 111.961 76.8748 112.717 77.6303C113.472 78.3859 114.497 78.8104 115.566 78.8104H123.623C124.692 78.8104 125.717 78.3859 126.472 77.6303C127.228 76.8748 127.652 75.85 127.652 74.7815V66.7238C127.652 65.6552 127.228 64.6305 126.472 63.8749C125.717 63.1194 124.692 62.6949 123.623 62.6949ZM123.623 86.8681H115.566C114.497 86.8681 113.472 87.2926 112.717 88.0481C111.961 88.8037 111.537 89.8285 111.537 90.897V98.9547C111.537 100.023 111.961 101.048 112.717 101.804C113.472 102.559 114.497 102.984 115.566 102.984H123.623C124.692 102.984 125.717 102.559 126.472 101.804C127.228 101.048 127.652 100.023 127.652 98.9547V90.897C127.652 89.8285 127.228 88.8037 126.472 88.0481C125.717 87.2926 124.692 86.8681 123.623 86.8681ZM123.623 111.041H115.566C114.497 111.041 113.472 111.466 112.717 112.221C111.961 112.977 111.537 114.002 111.537 115.07V123.128C111.537 124.196 111.961 125.221 112.717 125.977C113.472 126.732 114.497 127.157 115.566 127.157H123.623C124.692 127.157 125.717 126.732 126.472 125.977C127.228 125.221 127.652 124.196 127.652 123.128V115.07C127.652 114.002 127.228 112.977 126.472 112.221C125.717 111.466 124.692 111.041 123.623 111.041ZM123.623 38.5217H115.566C114.497 38.5217 113.472 38.9461 112.717 39.7017C111.961 40.4573 111.537 41.482 111.537 42.5505V50.6083C111.537 51.6768 111.961 52.7016 112.717 53.4571C113.472 54.2127 114.497 54.6371 115.566 54.6371H123.623C124.692 54.6371 125.717 54.2127 126.472 53.4571C127.228 52.7016 127.652 51.6768 127.652 50.6083V42.5505C127.652 41.482 127.228 40.4573 126.472 39.7017C125.717 38.9461 124.692 38.5217 123.623 38.5217ZM123.623 14.3484H73.2624H22.9015C20.7644 14.3484 18.7149 15.1974 17.2038 16.7085C15.6927 18.2196 14.8438 20.2691 14.8438 22.4062L14.8438 123.128C14.8438 124.196 15.2682 125.221 16.0238 125.977C16.7793 126.732 17.8041 127.157 18.8726 127.157H26.9304C27.9989 127.157 29.0236 126.732 29.7792 125.977C30.5348 125.221 30.9592 124.196 30.9592 123.128V30.4639H123.623C124.692 30.4639 125.717 30.0395 126.472 29.2839C127.228 28.5283 127.652 27.5036 127.652 26.4351V18.3773C127.652 17.3088 127.228 16.284 126.472 15.5285C125.717 14.7729 124.692 14.3484 123.623 14.3484Z" fill="#9CCC65"/>
</svg>
