<svg width="94" height="140" viewBox="0 0 94 140" fill="none" xmlns="http://www.w3.org/2000/svg">
<path d="M94 116.262C94 129.359 83.3542 140 70.2169 140C57.0795 140 46.4337 129.359 46.4337 116.262C46.4337 103.165 57.0795 92.5524 70.2169 92.5524C83.3542 92.5524 94 103.165 94 116.262ZM70.2169 47.4194C83.3542 47.4194 92.8675 36.8065 92.8675 23.7097C92.8675 10.6129 83.3542 0 70.2169 0C57.0795 0 45.3012 10.6129 45.3012 23.7097C45.3012 36.8065 36.9205 45.1613 23.7831 45.1613C10.6458 45.1613 0 56.9032 0 70C0 83.0968 10.6458 92.5806 23.7831 92.5806C36.9205 92.5806 47.5663 83.0968 47.5663 70C47.5663 56.9032 57.0795 47.4194 70.2169 47.4194Z" fill="#9CCC65"/>
</svg>
